# Blender v2.79 (sub 0) OBJ File: 'checkboard.blend'
# www.blender.org
o Cylinder
v 0.000000 -0.010056 -0.100560
v 0.000000 0.010056 -0.100560
v 0.019618 -0.010056 -0.098627
v 0.019618 0.010056 -0.098627
v 0.038482 -0.010056 -0.092905
v 0.038482 0.010056 -0.092905
v 0.055868 -0.010056 -0.083612
v 0.055868 0.010056 -0.083612
v 0.071106 -0.010056 -0.071106
v 0.071106 0.010056 -0.071106
v 0.083612 -0.010056 -0.055868
v 0.083612 0.010056 -0.055868
v 0.092905 -0.010056 -0.038482
v 0.092905 0.010056 -0.038482
v 0.098627 -0.010056 -0.019618
v 0.098627 0.010056 -0.019618
v 0.100560 -0.010056 -0.000000
v 0.100560 0.010056 -0.000000
v 0.098627 -0.010056 0.019618
v 0.098627 0.010056 0.019618
v 0.092905 -0.010056 0.038482
v 0.092905 0.010056 0.038482
v 0.083612 -0.010056 0.055868
v 0.083612 0.010056 0.055868
v 0.071106 -0.010056 0.071106
v 0.071106 0.010056 0.071106
v 0.055868 -0.010056 0.083612
v 0.055868 0.010056 0.083612
v 0.038482 -0.010056 0.092905
v 0.038482 0.010056 0.092905
v 0.019618 -0.010056 0.098627
v 0.019618 0.010056 0.098627
v -0.000000 -0.010056 0.100560
v -0.000000 0.010056 0.100560
v -0.019618 -0.010056 0.098627
v -0.019618 0.010056 0.098627
v -0.038483 -0.010056 0.092905
v -0.038483 0.010056 0.092905
v -0.055868 -0.010056 0.083612
v -0.055868 0.010056 0.083612
v -0.071106 -0.010056 0.071106
v -0.071106 0.010056 0.071106
v -0.083612 -0.010056 0.055868
v -0.083612 0.010056 0.055868
v -0.092905 -0.010056 0.038482
v -0.092905 0.010056 0.038482
v -0.098627 -0.010056 0.019618
v -0.098627 0.010056 0.019618
v -0.100560 -0.010056 -0.000000
v -0.100560 0.010056 -0.000000
v -0.098627 -0.010056 -0.019618
v -0.098627 0.010056 -0.019618
v -0.092905 -0.010056 -0.038483
v -0.092905 0.010056 -0.038483
v -0.083612 -0.010056 -0.055868
v -0.083612 0.010056 -0.055868
v -0.071106 -0.010056 -0.071106
v -0.071106 0.010056 -0.071106
v -0.055868 -0.010056 -0.083612
v -0.055868 0.010056 -0.083612
v -0.038482 -0.010056 -0.092905
v -0.038482 0.010056 -0.092905
v -0.019618 -0.010056 -0.098627
v -0.019618 0.010056 -0.098627
v 0.018090 0.010056 -0.090943
v 0.000000 0.010056 -0.092725
v 0.035484 0.010056 -0.085667
v 0.051515 0.010056 -0.077098
v 0.065567 0.010056 -0.065567
v 0.077098 0.010056 -0.051515
v 0.085667 0.010056 -0.035484
v 0.090943 0.010056 -0.018090
v 0.092725 0.010056 -0.000000
v 0.090943 0.010056 0.018090
v 0.085667 0.010056 0.035484
v 0.077098 0.010056 0.051515
v 0.065567 0.010056 0.065567
v 0.051515 0.010056 0.077098
v 0.035484 0.010056 0.085667
v 0.018090 0.010056 0.090943
v -0.000000 0.010056 0.092725
v -0.018090 0.010056 0.090943
v -0.035484 0.010056 0.085667
v -0.051515 0.010056 0.077098
v -0.065567 0.010056 0.065567
v -0.077098 0.010056 0.051515
v -0.085667 0.010056 0.035484
v -0.090943 0.010056 0.018090
v -0.092725 0.010056 -0.000000
v -0.090943 0.010056 -0.018090
v -0.085667 0.010056 -0.035484
v -0.077098 0.010056 -0.051515
v -0.065567 0.010056 -0.065567
v -0.051515 0.010056 -0.077098
v -0.035484 0.010056 -0.085667
v -0.018090 0.010056 -0.090944
v 0.018090 0.014342 -0.090943
v 0.000000 0.014342 -0.092725
v 0.035484 0.014342 -0.085667
v 0.051515 0.014342 -0.077098
v 0.065567 0.014342 -0.065567
v 0.077098 0.014342 -0.051515
v 0.085667 0.014342 -0.035484
v 0.090943 0.014342 -0.018090
v 0.092725 0.014342 -0.000000
v 0.090943 0.014342 0.018090
v 0.085667 0.014342 0.035484
v 0.077098 0.014342 0.051515
v 0.065567 0.014342 0.065567
v 0.051515 0.014342 0.077098
v 0.035484 0.014342 0.085667
v 0.018090 0.014342 0.090943
v -0.000000 0.014342 0.092725
v -0.018090 0.014342 0.090943
v -0.035484 0.014342 0.085667
v -0.051515 0.014342 0.077098
v -0.065567 0.014342 0.065567
v -0.077098 0.014342 0.051515
v -0.085667 0.014342 0.035484
v -0.090943 0.014342 0.018090
v -0.092725 0.014342 -0.000000
v -0.090943 0.014342 -0.018090
v -0.085667 0.014342 -0.035484
v -0.077098 0.014342 -0.051515
v -0.065567 0.014342 -0.065567
v -0.051515 0.014342 -0.077098
v -0.035484 0.014342 -0.085667
v -0.018090 0.014342 -0.090944
vt 0.288695 0.874792
vt 0.328457 0.914864
vt 0.287630 0.914864
vt 0.327219 0.873997
vt 0.370030 0.912497
vt 0.366401 0.870955
vt 0.412226 0.907677
vt 0.406123 0.865586
vt 0.454914 0.900323
vt 0.446261 0.857818
vt 0.497954 0.890362
vt 0.486686 0.847583
vt 0.541195 0.877732
vt 0.527272 0.834822
vt 0.584472 0.862411
vt 0.567957 0.819462
vt 0.627592 0.844555
vt 0.985171 0.508208
vt 0.968415 0.461722
vt 0.999863 0.476123
vt 0.954379 0.493721
vt 0.935664 0.448096
vt 0.922956 0.481312
vt 0.901504 0.435982
vt 0.890415 0.470546
vt 0.866004 0.425608
vt 0.856699 0.461456
vt 0.829250 0.417100
vt 0.821849 0.454147
vt 0.791329 0.410567
vt 0.785940 0.448722
vt 0.752336 0.406113
vt 0.749059 0.445278
vt 0.712371 0.403838
vt 0.711305 0.443909
vt 0.671544 0.403837
vt 0.672782 0.444704
vt 0.629971 0.406204
vt 0.633599 0.447745
vt 0.587774 0.411023
vt 0.593877 0.453114
vt 0.545087 0.418376
vt 0.553739 0.460882
vt 0.502047 0.428337
vt 0.513314 0.471116
vt 0.458805 0.440966
vt 0.472727 0.483877
vt 0.415528 0.456287
vt 0.432042 0.499237
vt 0.372408 0.474142
vt 0.014829 0.810497
vt 0.031585 0.856983
vt 0.000137 0.842582
vt 0.045621 0.824984
vt 0.064337 0.870608
vt 0.077044 0.837392
vt 0.098497 0.882722
vt 0.109585 0.848158
vt 0.133997 0.893096
vt 0.143301 0.857247
vt 0.170751 0.901603
vt 0.178151 0.864556
vt 0.208672 0.908136
vt 0.442578 0.841359
vt 0.214061 0.869980
vt 0.247666 0.912589
vt 0.250941 0.873424
vt 0.181985 0.403564
vt 0.000137 0.181982
vt 0.221718 0.000137
vt 0.478486 0.500473
vt 0.442860 0.524954
vt 0.439024 0.515907
vt 0.819250 0.468604
vt 0.518018 0.487665
vt 0.215869 0.855108
vt 0.251921 0.858175
vt 0.949001 0.506184
vt 0.635321 0.463866
vt 0.113643 0.834624
vt 0.481981 0.831034
vt 0.784131 0.463594
vt 0.288809 0.859208
vt 0.326431 0.858122
vt 0.918221 0.494354
vt 0.596565 0.469429
vt 0.146650 0.843238
vt 0.521514 0.818226
vt 0.748080 0.460527
vt 0.391162 0.517907
vt 0.400629 0.533837
vt 0.364679 0.854835
vt 0.886357 0.484080
vt 0.557422 0.477340
vt 0.180750 0.850098
vt 0.560975 0.802791
vt 0.711192 0.459493
vt 0.021686 0.798973
vt 0.050999 0.812520
vt 0.403435 0.849271
vt 0.853350 0.475465
vt 0.599370 0.784861
vt 0.608838 0.800790
vt 0.673569 0.460579
vt 0.081779 0.824350
vt 0.204455 0.403837
vt 0.372134 0.608156
vt 0.167816 0.775835
vt 0.915644 0.501598
vt 0.404718 0.542589
vt 0.884164 0.491585
vt 0.054001 0.805456
vt 0.851555 0.483229
vt 0.084355 0.817106
vt 0.817872 0.476613
vt 0.115836 0.827119
vt 0.783192 0.471829
vt 0.325930 0.849342
vt 0.148445 0.835474
vt 0.747601 0.468967
vt 0.363660 0.845924
vt 0.182128 0.842089
vt 0.711193 0.468116
vt 0.401881 0.840256
vt 0.216809 0.846873
vt 0.674070 0.469359
vt 0.440473 0.832269
vt 0.252400 0.849735
vt 0.636340 0.472777
vt 0.479310 0.821899
vt 0.288807 0.850586
vt 0.598119 0.478444
vt 0.518259 0.809081
vt 0.559527 0.486430
vt 0.557140 0.793744
vt 0.520690 0.496800
vt 0.595281 0.776109
vt 0.481741 0.509617
vt 0.978314 0.519732
vt 0.945998 0.513248
vt 0.260688 0.007888
vt 0.297398 0.023094
vt 0.330436 0.045169
vt 0.358532 0.073265
vt 0.380608 0.106303
vt 0.395813 0.143012
vt 0.403565 0.181982
vt 0.403565 0.221717
vt 0.395814 0.260687
vt 0.380609 0.297396
vt 0.358534 0.330434
vt 0.330437 0.358531
vt 0.297400 0.380606
vt 0.260690 0.395812
vt 0.221719 0.403564
vt 0.143014 0.395813
vt 0.106304 0.380607
vt 0.073266 0.358532
vt 0.045169 0.330435
vt 0.023094 0.297397
vt 0.007888 0.260688
vt 0.000137 0.221717
vt 0.007889 0.143012
vt 0.023094 0.106303
vt 0.045169 0.073265
vt 0.073266 0.045169
vt 0.106303 0.023094
vt 0.143013 0.007888
vt 0.181984 0.000137
vt 0.131882 0.768688
vt 0.098032 0.754667
vt 0.067569 0.734312
vt 0.041661 0.708405
vt 0.021306 0.677941
vt 0.007284 0.644091
vt 0.000137 0.608156
vt 0.000137 0.571517
vt 0.007284 0.535583
vt 0.067568 0.445362
vt 0.021305 0.501733
vt 0.041661 0.471269
vt 0.098032 0.425006
vt 0.131882 0.410985
vt 0.167817 0.403837
vt 0.240390 0.410985
vt 0.330611 0.471270
vt 0.274240 0.425006
vt 0.304704 0.445362
vt 0.350966 0.501733
vt 0.364987 0.535583
vt 0.372135 0.571517
vt 0.364986 0.644091
vt 0.350965 0.677940
vt 0.330610 0.708404
vt 0.304703 0.734311
vt 0.274239 0.754667
vt 0.240389 0.768688
vt 0.204454 0.775835
vt 0.024836 0.792096
vt 0.975164 0.526609
vn 0.0000 0.6857 -0.7279
vn 0.1420 -0.6857 -0.7139
vn 0.0000 -0.6857 -0.7279
vn 0.1420 0.6857 -0.7139
vn 0.2785 -0.6857 -0.6725
vn 0.2785 0.6857 -0.6725
vn 0.4044 -0.6857 -0.6052
vn 0.4044 0.6857 -0.6052
vn 0.5147 -0.6857 -0.5147
vn 0.5147 0.6857 -0.5147
vn 0.6052 -0.6857 -0.4044
vn 0.6052 0.6857 -0.4044
vn 0.6725 -0.6857 -0.2785
vn 0.6725 0.6857 -0.2785
vn 0.7139 -0.6857 -0.1420
vn 0.7139 0.6857 -0.1420
vn 0.7279 -0.6857 0.0000
vn 0.7279 0.6857 0.0000
vn 0.7139 -0.6857 0.1420
vn 0.7139 0.6857 0.1420
vn 0.6725 -0.6857 0.2785
vn 0.6725 0.6857 0.2785
vn 0.6052 -0.6857 0.4044
vn 0.6052 0.6857 0.4044
vn 0.5147 -0.6857 0.5147
vn 0.5147 0.6857 0.5147
vn 0.4044 -0.6857 0.6052
vn 0.4044 0.6857 0.6052
vn 0.2785 -0.6857 0.6725
vn 0.2785 0.6857 0.6725
vn 0.1420 -0.6857 0.7139
vn 0.1420 0.6857 0.7139
vn 0.0000 -0.6857 0.7279
vn 0.0000 0.6857 0.7279
vn -0.1420 -0.6857 0.7139
vn -0.1420 0.6857 0.7139
vn -0.2785 -0.6857 0.6725
vn -0.2785 0.6857 0.6725
vn -0.4044 -0.6857 0.6052
vn -0.4044 0.6857 0.6052
vn -0.5147 -0.6857 0.5147
vn -0.5147 0.6857 0.5147
vn -0.6052 -0.6857 0.4044
vn -0.6052 0.6857 0.4044
vn -0.6725 -0.6857 0.2785
vn -0.6725 0.6857 0.2785
vn -0.7139 -0.6857 0.1420
vn -0.7139 0.6857 0.1420
vn -0.7279 -0.6857 0.0000
vn -0.7279 0.6857 0.0000
vn -0.7139 -0.6857 -0.1420
vn -0.7139 0.6857 -0.1420
vn -0.6725 -0.6857 -0.2785
vn -0.6725 0.6857 -0.2785
vn -0.6052 -0.6857 -0.4044
vn -0.6052 0.6857 -0.4044
vn -0.5147 -0.6857 -0.5147
vn -0.5147 0.6857 -0.5147
vn -0.4044 -0.6857 -0.6052
vn -0.4044 0.6857 -0.6052
vn -0.2785 -0.6857 -0.6725
vn 0.4834 0.7298 -0.4834
vn -0.2785 0.6857 -0.6725
vn -0.1420 -0.6857 -0.7139
vn -0.1420 0.6857 -0.7139
vn -0.6316 0.7298 0.2616
vn -0.6705 0.7298 0.1333
vn 0.3798 0.7298 0.5684
vn -0.5684 0.7298 0.3798
vn -0.2616 0.7298 -0.6316
vn -0.1333 0.7298 -0.6705
vn 0.6705 0.7298 0.1333
vn -0.2616 0.7298 0.6316
vn -0.5684 0.7298 -0.3798
vn 0.5684 0.7298 -0.3798
vn 0.2616 0.7298 0.6316
vn 0.0000 0.7298 -0.6836
vn 0.1333 0.7298 -0.6705
vn 0.6316 0.7298 0.2616
vn -0.3798 0.7298 0.5684
vn -0.4834 0.7298 -0.4834
vn 0.6316 0.7298 -0.2616
vn 0.1333 0.7298 0.6705
vn -0.6836 0.7298 0.0000
vn 0.2616 0.7298 -0.6316
vn 0.5684 0.7298 0.3798
vn -0.4834 0.7298 0.4834
vn -0.3798 0.7298 -0.5684
vn 0.6705 0.7298 -0.1333
vn 0.0000 0.7298 0.6836
vn -0.6705 0.7298 -0.1334
vn 0.3798 0.7298 -0.5684
vn 0.4834 0.7298 0.4834
vn 0.6836 0.7298 0.0000
vn -0.1333 0.7298 0.6705
vn -0.6316 0.7298 -0.2616
s 1
f 2/1/1 3/2/2 1/3/3
f 4/4/4 5/5/5 3/2/2
f 6/6/6 7/7/7 5/5/5
f 8/8/8 9/9/9 7/7/7
f 10/10/10 11/11/11 9/9/9
f 12/12/12 13/13/13 11/11/11
f 14/14/14 15/15/15 13/13/13
f 16/16/16 17/17/17 15/15/15
f 18/18/18 19/19/19 17/20/17
f 20/21/20 21/22/21 19/19/19
f 22/23/22 23/24/23 21/22/21
f 24/25/24 25/26/25 23/24/23
f 26/27/26 27/28/27 25/26/25
f 28/29/28 29/30/29 27/28/27
f 30/31/30 31/32/31 29/30/29
f 32/33/32 33/34/33 31/32/31
f 34/35/34 35/36/35 33/34/33
f 36/37/36 37/38/37 35/36/35
f 38/39/38 39/40/39 37/38/37
f 40/41/40 41/42/41 39/40/39
f 42/43/42 43/44/43 41/42/41
f 44/45/44 45/46/45 43/44/43
f 46/47/46 47/48/47 45/46/45
f 48/49/48 49/50/49 47/48/47
f 50/51/50 51/52/51 49/53/49
f 52/54/52 53/55/53 51/52/51
f 54/56/54 55/57/55 53/55/53
f 56/58/56 57/59/57 55/57/55
f 58/60/58 59/61/59 57/59/57
f 60/62/60 61/63/61 59/61/59
f 8/8/8 69/64/62 10/10/10
f 62/65/63 63/66/64 61/63/61
f 64/67/65 1/3/3 63/66/64
f 31/68/31 47/69/47 63/70/64
f 87/71/66 120/72/48 88/73/67
f 26/27/26 78/74/68 28/29/28
f 46/47/46 86/75/69 87/71/66
f 64/67/65 95/76/70 96/77/71
f 18/18/18 74/78/72 20/21/20
f 36/37/36 83/79/73 38/39/38
f 54/56/54 92/80/74 56/58/56
f 10/10/10 70/81/75 12/12/12
f 28/29/28 79/82/76 30/31/30
f 48/49/48 87/71/66 88/73/67
f 4/4/4 66/83/77 65/84/78
f 2/1/1 96/77/71 66/83/77
f 22/23/22 74/78/72 75/85/79
f 38/39/38 84/86/80 40/41/40
f 58/60/58 92/80/74 93/87/81
f 12/12/12 71/88/82 14/14/14
f 30/31/30 80/89/83 32/33/32
f 50/90/50 88/73/67 89/91/84
f 4/4/4 67/92/85 6/6/6
f 22/23/22 76/93/86 24/25/24
f 40/41/40 85/94/87 42/43/42
f 58/60/58 94/95/88 60/62/60
f 14/14/14 72/96/89 16/16/16
f 32/33/32 81/97/90 34/35/34
f 52/54/52 89/98/84 90/99/91
f 6/6/6 68/100/92 8/8/8
f 24/25/24 77/101/93 26/27/26
f 44/45/44 85/94/87 86/75/69
f 62/65/63 94/95/88 95/76/70
f 16/16/16 73/102/94 18/103/18
f 34/35/34 82/104/95 36/37/36
f 54/56/54 90/99/91 91/105/96
f 115/106/38 107/107/22 99/108/6
f 74/78/72 107/109/22 75/85/79
f 88/73/67 121/110/50 89/91/84
f 75/85/79 108/111/24 76/93/86
f 89/98/84 122/112/52 90/99/91
f 76/93/86 109/113/26 77/101/93
f 90/99/91 123/114/54 91/105/96
f 77/101/93 110/115/28 78/74/68
f 91/105/96 124/116/56 92/80/74
f 78/74/68 111/117/30 79/82/76
f 66/83/77 97/118/4 65/84/78
f 92/80/74 125/119/58 93/87/81
f 79/82/76 112/120/32 80/89/83
f 65/84/78 99/121/6 67/92/85
f 93/87/81 126/122/60 94/95/88
f 80/89/83 113/123/34 81/97/90
f 67/92/85 100/124/8 68/100/92
f 94/95/88 127/125/63 95/76/70
f 81/97/90 114/126/36 82/104/95
f 68/100/92 101/127/10 69/64/62
f 95/76/70 128/128/65 96/77/71
f 82/104/95 115/129/38 83/79/73
f 69/64/62 102/130/12 70/81/75
f 96/77/71 98/131/1 66/83/77
f 83/79/73 116/132/40 84/86/80
f 70/81/75 103/133/14 71/88/82
f 84/86/80 117/134/42 85/94/87
f 71/88/82 104/135/16 72/96/89
f 85/94/87 118/136/44 86/75/69
f 72/96/89 105/137/18 73/102/94
f 86/75/69 119/138/46 87/71/66
f 73/139/94 106/140/20 74/78/72
f 2/1/1 4/4/4 3/2/2
f 4/4/4 6/6/6 5/5/5
f 6/6/6 8/8/8 7/7/7
f 8/8/8 10/10/10 9/9/9
f 10/10/10 12/12/12 11/11/11
f 12/12/12 14/14/14 13/13/13
f 14/14/14 16/16/16 15/15/15
f 16/16/16 18/103/18 17/17/17
f 18/18/18 20/21/20 19/19/19
f 20/21/20 22/23/22 21/22/21
f 22/23/22 24/25/24 23/24/23
f 24/25/24 26/27/26 25/26/25
f 26/27/26 28/29/28 27/28/27
f 28/29/28 30/31/30 29/30/29
f 30/31/30 32/33/32 31/32/31
f 32/33/32 34/35/34 33/34/33
f 34/35/34 36/37/36 35/36/35
f 36/37/36 38/39/38 37/38/37
f 38/39/38 40/41/40 39/40/39
f 40/41/40 42/43/42 41/42/41
f 42/43/42 44/45/44 43/44/43
f 44/45/44 46/47/46 45/46/45
f 46/47/46 48/49/48 47/48/47
f 48/49/48 50/90/50 49/50/49
f 50/51/50 52/54/52 51/52/51
f 52/54/52 54/56/54 53/55/53
f 54/56/54 56/58/56 55/57/55
f 56/58/56 58/60/58 57/59/57
f 58/60/58 60/62/60 59/61/59
f 60/62/60 62/65/63 61/63/61
f 8/8/8 68/100/92 69/64/62
f 62/65/63 64/67/65 63/66/64
f 64/67/65 2/1/1 1/3/3
f 63/70/64 1/141/3 3/142/2
f 3/142/2 5/143/5 7/144/7
f 7/144/7 9/145/9 11/146/11
f 11/146/11 13/147/13 7/144/7
f 13/147/13 15/148/15 7/144/7
f 15/148/15 17/149/17 19/150/19
f 19/150/19 21/151/21 15/148/15
f 21/151/21 23/152/23 15/148/15
f 23/152/23 25/153/25 31/68/31
f 25/153/25 27/154/27 31/68/31
f 27/154/27 29/155/29 31/68/31
f 31/68/31 33/156/33 35/157/35
f 35/157/35 37/158/37 31/68/31
f 37/158/37 39/159/39 31/68/31
f 39/159/39 41/160/41 43/161/43
f 43/161/43 45/162/45 47/69/47
f 47/69/47 49/163/49 51/164/51
f 51/164/51 53/165/53 55/166/55
f 55/166/55 57/167/57 59/168/59
f 59/168/59 61/169/61 63/70/64
f 63/70/64 3/142/2 15/148/15
f 3/142/2 7/144/7 15/148/15
f 39/159/39 43/161/43 47/69/47
f 47/69/47 51/164/51 55/166/55
f 55/166/55 59/168/59 47/69/47
f 59/168/59 63/70/64 47/69/47
f 15/148/15 23/152/23 31/68/31
f 31/68/31 39/159/39 47/69/47
f 63/70/64 15/148/15 31/68/31
f 87/71/66 119/138/46 120/72/48
f 26/27/26 77/101/93 78/74/68
f 46/47/46 44/45/44 86/75/69
f 64/67/65 62/65/63 95/76/70
f 18/18/18 73/139/94 74/78/72
f 36/37/36 82/104/95 83/79/73
f 54/56/54 91/105/96 92/80/74
f 10/10/10 69/64/62 70/81/75
f 28/29/28 78/74/68 79/82/76
f 48/49/48 46/47/46 87/71/66
f 4/4/4 2/1/1 66/83/77
f 2/1/1 64/67/65 96/77/71
f 22/23/22 20/21/20 74/78/72
f 38/39/38 83/79/73 84/86/80
f 58/60/58 56/58/56 92/80/74
f 12/12/12 70/81/75 71/88/82
f 30/31/30 79/82/76 80/89/83
f 50/90/50 48/49/48 88/73/67
f 4/4/4 65/84/78 67/92/85
f 22/23/22 75/85/79 76/93/86
f 40/41/40 84/86/80 85/94/87
f 58/60/58 93/87/81 94/95/88
f 14/14/14 71/88/82 72/96/89
f 32/33/32 80/89/83 81/97/90
f 52/54/52 50/51/50 89/98/84
f 6/6/6 67/92/85 68/100/92
f 24/25/24 76/93/86 77/101/93
f 44/45/44 42/43/42 85/94/87
f 62/65/63 60/62/60 94/95/88
f 16/16/16 72/96/89 73/102/94
f 34/35/34 81/97/90 82/104/95
f 54/56/54 52/54/52 90/99/91
f 99/108/6 97/170/4 98/171/1
f 98/171/1 128/172/65 127/173/63
f 127/173/63 126/174/60 125/175/58
f 125/175/58 124/176/56 123/177/54
f 123/177/54 122/178/52 119/179/46
f 122/178/52 121/180/50 119/179/46
f 121/180/50 120/181/48 119/179/46
f 119/179/46 118/182/44 117/183/42
f 117/183/42 116/184/40 119/179/46
f 116/184/40 115/106/38 119/179/46
f 115/106/38 114/185/36 111/186/30
f 114/185/36 113/187/34 111/186/30
f 113/187/34 112/188/32 111/186/30
f 111/186/30 110/189/28 109/190/26
f 109/190/26 108/191/24 107/107/22
f 107/107/22 106/192/20 105/193/18
f 105/193/18 104/194/16 103/195/14
f 103/195/14 102/196/12 101/197/10
f 101/197/10 100/198/8 99/108/6
f 99/108/6 98/171/1 127/173/63
f 127/173/63 125/175/58 123/177/54
f 111/186/30 109/190/26 107/107/22
f 107/107/22 105/193/18 99/108/6
f 105/193/18 103/195/14 99/108/6
f 103/195/14 101/197/10 99/108/6
f 99/108/6 127/173/63 123/177/54
f 123/177/54 119/179/46 115/106/38
f 115/106/38 111/186/30 107/107/22
f 99/108/6 123/177/54 115/106/38
f 74/78/72 106/140/20 107/109/22
f 88/73/67 120/72/48 121/110/50
f 75/85/79 107/109/22 108/111/24
f 89/98/84 121/199/50 122/112/52
f 76/93/86 108/111/24 109/113/26
f 90/99/91 122/112/52 123/114/54
f 77/101/93 109/113/26 110/115/28
f 91/105/96 123/114/54 124/116/56
f 78/74/68 110/115/28 111/117/30
f 66/83/77 98/131/1 97/118/4
f 92/80/74 124/116/56 125/119/58
f 79/82/76 111/117/30 112/120/32
f 65/84/78 97/118/4 99/121/6
f 93/87/81 125/119/58 126/122/60
f 80/89/83 112/120/32 113/123/34
f 67/92/85 99/121/6 100/124/8
f 94/95/88 126/122/60 127/125/63
f 81/97/90 113/123/34 114/126/36
f 68/100/92 100/124/8 101/127/10
f 95/76/70 127/125/63 128/128/65
f 82/104/95 114/126/36 115/129/38
f 69/64/62 101/127/10 102/130/12
f 96/77/71 128/128/65 98/131/1
f 83/79/73 115/129/38 116/132/40
f 70/81/75 102/130/12 103/133/14
f 84/86/80 116/132/40 117/134/42
f 71/88/82 103/133/14 104/135/16
f 85/94/87 117/134/42 118/136/44
f 72/96/89 104/135/16 105/137/18
f 86/75/69 118/136/44 119/138/46
f 73/139/94 105/200/18 106/140/20
