# Blender v2.79 (sub 0) OBJ File: 'checkboard.blend'
# www.blender.org
o Cube
v 1.000000 -0.050000 -1.000000
v 1.000000 -0.050000 1.000000
v -1.000000 -0.050000 1.000000
v -1.000000 -0.050000 -1.000000
v 1.000000 0.050000 -1.000000
v 1.000000 0.050000 1.000000
v -1.000000 0.050000 1.000000
v -1.000000 0.050000 -1.000000
vt 0.000145 0.999854
vt 0.499855 0.500144
vt 0.499855 0.999854
vt 0.000145 0.999855
vt 0.499855 0.500144
vt 0.499855 0.999854
vt 0.999855 0.075680
vt 0.500145 0.050695
vt 0.999855 0.050695
vt 0.999855 0.100955
vt 0.500144 0.075970
vt 0.999855 0.075970
vt 0.500144 0.000145
vt 0.999855 0.025130
vt 0.500144 0.025130
vt 0.999852 0.050405
vt 0.500144 0.025420
vt 0.999852 0.025420
vt 0.000145 0.500144
vt 0.000145 0.500144
vt 0.500144 0.075680
vt 0.500144 0.100955
vt 0.999855 0.000145
vt 0.500144 0.050406
vn 0.0000 -1.0000 0.0000
vn 0.0000 1.0000 0.0000
vn 1.0000 -0.0000 0.0000
vn 0.0000 -0.0000 1.0000
vn -1.0000 -0.0000 -0.0000
vn 0.0000 0.0000 -1.0000
s off
f 2/1/1 4/2/1 1/3/1
f 8/4/2 6/5/2 5/6/2
f 5/7/3 2/8/3 1/9/3
f 6/10/4 3/11/4 2/12/4
f 7/13/5 4/14/5 3/15/5
f 1/16/6 8/17/6 5/18/6
f 2/1/1 3/19/1 4/2/1
f 8/4/2 7/20/2 6/5/2
f 5/7/3 6/21/3 2/8/3
f 6/10/4 7/22/4 3/11/4
f 7/13/5 8/23/5 4/14/5
f 1/16/6 4/24/6 8/17/6
